<svg width="103" height="30" viewBox="0 0 103 30" fill="none" xmlns="http://www.w3.org/2000/svg">
<g clip-path="url(#clip0_429_5654)">
<g clip-path="url(#clip1_429_5654)">
<circle cx="15" cy="15" r="15" fill="#FF8800"/>
<path d="M7 15.127C7 14.7284 7 14.529 7.07881 14.3773C7.14522 14.2495 7.24947 14.1452 7.37732 14.0788C7.52903 14 7.72836 14 8.127 14H8.873C9.27164 14 9.47097 14 9.62268 14.0788C9.75053 14.1452 9.85478 14.2495 9.92119 14.3773C10 14.529 10 14.7284 10 15.127V17.873C10 18.2716 10 18.471 9.92119 18.6227C9.85478 18.7505 9.75053 18.8548 9.62268 18.9212C9.47097 19 9.27164 19 8.873 19H8.127C7.72836 19 7.52903 19 7.37732 18.9212C7.24947 18.8548 7.14522 18.7505 7.07881 18.6227C7 18.471 7 18.2716 7 17.873V15.127Z" fill="white"/>
<path d="M7 21.127C7 20.7284 7 20.529 7.07881 20.3773C7.14522 20.2495 7.24947 20.1452 7.37732 20.0788C7.52903 20 7.72836 20 8.127 20H8.873C9.27164 20 9.47097 20 9.62268 20.0788C9.75053 20.1452 9.85478 20.2495 9.92119 20.3773C10 20.529 10 20.7284 10 21.127V21.873C10 22.2716 10 22.471 9.92119 22.6227C9.85478 22.7505 9.75053 22.8548 9.62268 22.9212C9.47097 23 9.27164 23 8.873 23H8.127C7.72836 23 7.52903 23 7.37732 22.9212C7.24947 22.8548 7.14522 22.7505 7.07881 22.6227C7 22.471 7 22.2716 7 21.873V21.127Z" fill="white"/>
<path d="M11 12.127C11 11.7284 11 11.529 11.0788 11.3773C11.1452 11.2495 11.2495 11.1452 11.3773 11.0788C11.529 11 11.7284 11 12.127 11H12.873C13.2716 11 13.471 11 13.6227 11.0788C13.7505 11.1452 13.8548 11.2495 13.9212 11.3773C14 11.529 14 11.7284 14 12.127V17.873C14 18.2716 14 18.471 13.9212 18.6227C13.8548 18.7505 13.7505 18.8548 13.6227 18.9212C13.471 19 13.2716 19 12.873 19H12.127C11.7284 19 11.529 19 11.3773 18.9212C11.2495 18.8548 11.1452 18.7505 11.0788 18.6227C11 18.471 11 18.2716 11 17.873V12.127Z" fill="white"/>
<path d="M11 21.127C11 20.7284 11 20.529 11.0788 20.3773C11.1452 20.2495 11.2495 20.1452 11.3773 20.0788C11.529 20 11.7284 20 12.127 20H12.873C13.2716 20 13.471 20 13.6227 20.0788C13.7505 20.1452 13.8548 20.2495 13.9212 20.3773C14 20.529 14 20.7284 14 21.127V21.873C14 22.2716 14 22.471 13.9212 22.6227C13.8548 22.7505 13.7505 22.8548 13.6227 22.9212C13.471 23 13.2716 23 12.873 23H12.127C11.7284 23 11.529 23 11.3773 22.9212C11.2495 22.8548 11.1452 22.7505 11.0788 22.6227C11 22.471 11 22.2716 11 21.873V21.127Z" fill="white"/>
<path d="M15 9.127C15 8.72836 15 8.52903 15.0788 8.37732C15.1452 8.24947 15.2495 8.14522 15.3773 8.07881C15.529 8 15.7284 8 16.127 8H16.873C17.2716 8 17.471 8 17.6227 8.07881C17.7505 8.14522 17.8548 8.24947 17.9212 8.37732C18 8.52903 18 8.72836 18 9.127V17.873C18 18.2716 18 18.471 17.9212 18.6227C17.8548 18.7505 17.7505 18.8548 17.6227 18.9212C17.471 19 17.2716 19 16.873 19H16.127C15.7284 19 15.529 19 15.3773 18.9212C15.2495 18.8548 15.1452 18.7505 15.0788 18.6227C15 18.471 15 18.2716 15 17.873V9.127Z" fill="white"/>
<path d="M15 21.127C15 20.7284 15 20.529 15.0788 20.3773C15.1452 20.2495 15.2495 20.1452 15.3773 20.0788C15.529 20 15.7284 20 16.127 20H16.873C17.2716 20 17.471 20 17.6227 20.0788C17.7505 20.1452 17.8548 20.2495 17.9212 20.3773C18 20.529 18 20.7284 18 21.127V21.873C18 22.2716 18 22.471 17.9212 22.6227C17.8548 22.7505 17.7505 22.8548 17.6227 22.9212C17.471 23 17.2716 23 16.873 23H16.127C15.7284 23 15.529 23 15.3773 22.9212C15.2495 22.8548 15.1452 22.7505 15.0788 22.6227C15 22.471 15 22.2716 15 21.873V21.127Z" fill="white"/>
<path opacity="0.5" d="M19 7.127C19 6.72836 19 6.52903 19.0788 6.37732C19.1452 6.24947 19.2495 6.14522 19.3773 6.07881C19.529 6 19.7284 6 20.127 6H20.873C21.2716 6 21.471 6 21.6227 6.07881C21.7505 6.14522 21.8548 6.24947 21.9212 6.37732C22 6.52903 22 6.72836 22 7.127V17.873C22 18.2716 22 18.471 21.9212 18.6227C21.8548 18.7505 21.7505 18.8548 21.6227 18.9212C21.471 19 21.2716 19 20.873 19H20.127C19.7284 19 19.529 19 19.3773 18.9212C19.2495 18.8548 19.1452 18.7505 19.0788 18.6227C19 18.471 19 18.2716 19 17.873V7.127Z" fill="white"/>
<path d="M19 21.127C19 20.7284 19 20.529 19.0788 20.3773C19.1452 20.2495 19.2495 20.1452 19.3773 20.0788C19.529 20 19.7284 20 20.127 20H20.873C21.2716 20 21.471 20 21.6227 20.0788C21.7505 20.1452 21.8548 20.2495 21.9212 20.3773C22 20.529 22 20.7284 22 21.127V21.873C22 22.2716 22 22.471 21.9212 22.6227C21.8548 22.7505 21.7505 22.8548 21.6227 22.9212C21.471 23 21.2716 23 20.873 23H20.127C19.7284 23 19.529 23 19.3773 22.9212C19.2495 22.8548 19.1452 22.7505 19.0788 22.6227C19 22.471 19 22.2716 19 21.873V21.127Z" fill="white"/>
</g>
<path fill-rule="evenodd" clip-rule="evenodd" d="M41.5391 26.3631C41.7526 26.4544 41.9356 26.5 42.0881 26.5C42.4998 26.5 42.7972 26.2642 42.9802 25.7927L49.98 10.0942C50.285 9.42493 50.0943 8.94577 49.4081 8.65675C48.7523 8.38294 48.272 8.56547 47.967 9.20437L44.2906 17.4884L40.098 9.18155C39.9607 8.89252 39.7625 8.69858 39.5032 8.5997C39.244 8.50083 38.9695 8.51224 38.6797 8.63393C38.39 8.75562 38.1879 8.94957 38.0735 9.21577C37.9592 9.48198 37.9782 9.75959 38.1307 10.0486L43.2704 19.7872L40.9901 24.9256C40.6851 25.5797 40.8681 26.0589 41.5391 26.3631ZM67.5137 20.6245C68.421 20.9516 69.4085 21.1151 70.476 21.1151C71.5587 21.1151 72.4623 20.9478 73.1867 20.6131C73.911 20.2784 74.46 19.8297 74.8337 19.2669C75.2073 18.704 75.3941 18.0728 75.3941 17.373C75.3941 16.7645 75.2492 16.2283 74.9595 15.7644C74.6697 15.3004 74.1932 14.8935 73.5298 14.5436C72.8664 14.1938 71.9628 13.9048 70.8191 13.6766C69.9956 13.5093 69.3703 13.3381 68.9433 13.1632C68.5163 12.9883 68.2304 12.7905 68.0855 12.5699C67.9407 12.3494 67.8682 12.1022 67.8682 11.8284C67.8682 11.3872 68.1008 11.0526 68.5659 10.8244C69.031 10.5962 69.5991 10.4821 70.2701 10.4821C70.8496 10.4821 71.3605 10.5506 71.8027 10.6875C72.245 10.8244 72.6567 11.0754 73.038 11.4405C73.2667 11.6534 73.5488 11.7903 73.8843 11.8512C74.2198 11.912 74.5096 11.8588 74.7536 11.6915C74.9976 11.5089 75.1272 11.2846 75.1425 11.0184C75.1577 10.7521 75.0586 10.4974 74.8451 10.254C74.3876 9.69113 73.77 9.25 72.9922 8.93056C72.2145 8.61111 71.3223 8.45139 70.3158 8.45139C69.5381 8.45139 68.7908 8.57688 68.0741 8.82788C67.3573 9.07887 66.7702 9.45916 66.3127 9.96875C65.8552 10.4783 65.6265 11.121 65.6265 11.8968C65.6265 12.7791 65.9734 13.5245 66.6673 14.1329C67.3612 14.7414 68.4782 15.1977 70.0185 15.502C71.208 15.7149 72.0276 15.9888 72.4775 16.3234C72.9274 16.6581 73.1447 17.0536 73.1295 17.5099C73.1142 17.9663 72.874 18.339 72.4089 18.628C71.9438 18.917 71.269 19.0615 70.3845 19.0615C69.683 19.0615 69.0463 18.936 68.4744 18.685C67.9025 18.434 67.487 18.164 67.2277 17.875C67.0142 17.6468 66.7588 17.5137 66.4614 17.4757C66.164 17.4377 65.8628 17.5403 65.5578 17.7837C65.2986 17.9815 65.1499 18.2363 65.1118 18.5481C65.0737 18.86 65.169 19.1376 65.3977 19.381C65.901 19.8829 66.6063 20.2975 67.5137 20.6245ZM78.9054 20.693C79.1265 20.9135 79.4048 21.0238 79.7403 21.0238C80.0911 21.0238 80.3732 20.9135 80.5867 20.693C80.8002 20.4724 80.907 20.1948 80.907 19.8601V9.70635C80.907 9.35648 80.8002 9.07507 80.5867 8.8621C80.3732 8.64914 80.0911 8.54266 79.7403 8.54266C79.4048 8.54266 79.1265 8.64914 78.9054 8.8621C78.6843 9.07507 78.5737 9.35648 78.5737 9.70635V19.8601C78.5737 20.1948 78.6843 20.4724 78.9054 20.693ZM78.6767 6.06696C78.974 6.36359 79.3286 6.5119 79.7403 6.5119C80.1521 6.5119 80.5067 6.36359 80.804 6.06696C81.1014 5.77034 81.2501 5.41667 81.2501 5.00595C81.2501 4.59524 81.1014 4.24157 80.804 3.94494C80.5067 3.64831 80.1521 3.5 79.7403 3.5C79.3286 3.5 78.974 3.64831 78.6767 3.94494C78.3793 4.24157 78.2306 4.59524 78.2306 5.00595C78.2306 5.41667 78.3793 5.77034 78.6767 6.06696ZM100.843 20.7158C101.064 20.9363 101.342 21.0466 101.677 21.0466C102.028 21.0466 102.31 20.9363 102.524 20.7158C102.737 20.4952 102.844 20.2176 102.844 19.8829V13.3571C102.844 12.3075 102.657 11.4139 102.284 10.6761C101.91 9.93832 101.388 9.3793 100.717 8.99901C100.046 8.61872 99.2756 8.42857 98.4063 8.42857C97.4151 8.42857 96.5344 8.64153 95.7643 9.06746C95.2226 9.36703 94.7658 9.74749 94.3939 10.2089C94.0521 9.69771 93.6206 9.29443 93.0993 8.99901C92.4283 8.61872 91.6582 8.42857 90.789 8.42857C89.8892 8.42857 89.0886 8.64153 88.3871 9.06746C88.0933 9.24584 87.8263 9.45289 87.586 9.68863C87.578 9.3575 87.4714 9.0896 87.2662 8.88492C87.0527 8.67196 86.7706 8.56548 86.4198 8.56548C86.0843 8.56548 85.806 8.67196 85.5849 8.88492C85.3638 9.09788 85.2532 9.3793 85.2532 9.72917V19.8829C85.2532 20.2176 85.3638 20.4952 85.5849 20.7158C85.806 20.9363 86.0843 21.0466 86.4198 21.0466C86.7706 21.0466 87.0527 20.9363 87.2662 20.7158C87.4797 20.4952 87.5865 20.2176 87.5865 19.8829V13.4484C87.5865 12.5966 87.8457 11.8968 88.3642 11.3492C88.8827 10.8016 89.5385 10.5278 90.3315 10.5278C91.094 10.5278 91.7116 10.7598 92.1843 11.2237C92.6571 11.6877 92.8935 12.3988 92.8935 13.3571V19.8829C92.8935 20.2176 93.004 20.4952 93.2252 20.7158C93.4463 20.9363 93.7246 21.0466 94.0601 21.0466C94.4108 21.0466 94.693 20.9363 94.9065 20.7158C95.12 20.4952 95.2267 20.2176 95.2267 19.8829V13.4484C95.2267 12.5966 95.4821 11.8968 95.993 11.3492C96.5039 10.8016 97.1558 10.5278 97.9488 10.5278C98.7113 10.5278 99.329 10.7598 99.8017 11.2237C100.274 11.6877 100.511 12.3988 100.511 13.3571V19.8829C100.511 20.2176 100.621 20.4952 100.843 20.7158ZM53.3134 14.5683C53.3365 13.1475 53.8111 12.2403 54.4132 11.6749C55.049 11.0778 55.9343 10.7619 56.8881 10.7387C57.8468 10.7154 58.7909 10.9917 59.4824 11.4729C59.9128 11.7723 60.2298 12.1366 60.4143 12.5536L53.3134 14.5683ZM53.7097 16.7892C53.8299 17.0578 53.9716 17.2897 54.1267 17.4896C54.5976 18.0969 55.2567 18.4944 56.0223 18.7029C57.6236 19.139 59.4469 18.6897 60.3361 17.9227C60.8061 17.5174 61.5166 17.5688 61.923 18.0376C62.3294 18.5064 62.2778 19.215 61.8078 19.6204C60.2873 20.9319 57.6683 21.4776 55.4298 20.868C54.2755 20.5537 53.1654 19.9182 52.3469 18.8627C51.5251 17.8029 51.0625 16.4035 51.0625 14.6775C51.0625 12.6659 51.7397 11.1032 52.8709 10.0408C53.9837 8.99571 55.4351 8.52898 56.8334 8.49504C58.2269 8.46122 59.6505 8.85341 60.7697 9.63214C61.9028 10.4205 62.7597 11.6396 62.8439 13.2024C62.8772 13.8212 62.6071 14.2648 61.938 14.4546L53.7097 16.7892Z" fill="#FF8800"/>
</g>
<defs>
<clipPath id="clip0_429_5654">
<rect width="102.844" height="30" fill="white"/>
</clipPath>
<clipPath id="clip1_429_5654">
<rect width="30" height="30" fill="white"/>
</clipPath>
</defs>
</svg>
